<svg width="26" height="26" viewBox="0 0 26 26" fill="none" xmlns="http://www.w3.org/2000/svg">
<path opacity="0.2" d="M25.61 16.145C23.8737 23.1094 16.8196 27.3474 9.85441 25.6111C2.8925 23.8747 -1.34591 16.8206 0.390812 9.85668C2.12631 2.89152 9.18003 -1.34729 16.1432 0.389023C23.1079 2.12534 27.3459 9.18027 25.6096 16.145H25.61Z" fill="white"/>
<path fill-rule="evenodd" clip-rule="evenodd" d="M16.6614 10.7776C16.6303 9.59149 15.6408 9.12539 14.3646 8.9231L14.4789 7.28881L13.4838 7.2194L13.3726 8.81062C13.1114 8.79232 12.8437 8.77879 12.5777 8.76552L12.6899 7.16378L11.6956 7.09422L11.581 8.72802C11.3653 8.71736 11.1535 8.70657 10.9473 8.69229L10.9475 8.68721L9.57551 8.5908L9.50148 9.65327C9.50148 9.65327 10.2371 9.69064 10.2239 9.70331C10.6268 9.73161 10.7419 9.97466 10.7657 10.1792L10.6356 12.041C10.6634 12.0431 10.6995 12.0468 10.7402 12.0553L10.6354 12.0481L10.4525 14.6563C10.4259 14.7819 10.3373 14.9788 10.0557 14.9596C10.0676 14.9718 9.33259 14.9089 9.33259 14.9089L9.05191 16.0834L10.3468 16.1738C10.493 16.1842 10.6376 16.1959 10.7807 16.2075C10.8734 16.2149 10.9654 16.2224 11.0567 16.2294L10.9416 17.8826L11.9353 17.9522L12.0499 16.3168C12.3221 16.3415 12.586 16.3622 12.8438 16.3799L12.7295 18.0078L13.7243 18.0773L13.84 16.4273C15.5191 16.4483 16.7194 16.1088 16.9741 14.5488C17.1799 13.2924 16.6247 12.6864 15.6913 12.3918C16.2884 12.1379 16.6852 11.6457 16.6612 10.7776L16.6614 10.7776ZM15.0223 14.2146C14.9433 15.3484 13.1637 15.1988 12.3502 15.1304C12.2773 15.1243 12.2122 15.1188 12.1568 15.115L12.3102 12.925C12.3779 12.9298 12.4604 12.9336 12.5538 12.9379L12.5538 12.9379C13.3897 12.9766 15.1029 13.0558 15.0226 14.2145L15.0223 14.2146ZM12.5438 11.936C13.2229 11.9947 14.7031 12.1226 14.7754 11.0925C14.8492 10.0388 13.4209 9.97695 12.7233 9.94676C12.6449 9.94337 12.5757 9.94037 12.5189 9.93641L12.3799 11.9226C12.4268 11.9259 12.482 11.9307 12.5438 11.936Z" fill="white"/>
</svg>
